<svg width="15" height="15" viewBox="0 0 15 15" fill="none" xmlns="http://www.w3.org/2000/svg">
<path d="M7.5 9.375C7.99728 9.375 8.47419 9.17746 8.82583 8.82583C9.17746 8.47419 9.375 7.99728 9.375 7.5C9.375 7.00272 9.17746 6.52581 8.82583 6.17417C8.47419 5.82254 7.99728 5.625 7.5 5.625C7.00272 5.625 6.52581 5.82254 6.17417 6.17417C5.82254 6.52581 5.625 7.00272 5.625 7.5C5.625 7.99728 5.82254 8.47419 6.17417 8.82583C6.52581 9.17746 7.00272 9.375 7.5 9.375Z" fill="#390099"/>
<path fill-rule="evenodd" clip-rule="evenodd" d="M0.498156 7.9425C0.387984 7.65623 0.387984 7.33927 0.498156 7.053C1.04358 5.63887 2.0045 4.42308 3.25438 3.56573C4.50426 2.70838 5.98449 2.24967 7.50016 2.25C10.6929 2.25 13.4199 4.245 14.5022 7.0575C14.6124 7.34325 14.6117 7.6605 14.5022 7.947C13.9567 9.36113 12.9958 10.5769 11.7459 11.4343C10.4961 12.2916 9.01583 12.7503 7.50016 12.75C4.30741 12.75 1.58041 10.755 0.498156 7.9425ZM10.5002 7.5C10.5002 8.29565 10.1841 9.05871 9.62148 9.62132C9.05887 10.1839 8.29581 10.5 7.50016 10.5C6.70451 10.5 5.94145 10.1839 5.37884 9.62132C4.81623 9.05871 4.50016 8.29565 4.50016 7.5C4.50016 6.70435 4.81623 5.94129 5.37884 5.37868C5.94145 4.81607 6.70451 4.5 7.50016 4.5C8.29581 4.5 9.05887 4.81607 9.62148 5.37868C10.1841 5.94129 10.5002 6.70435 10.5002 7.5Z" fill="#390099"/>
</svg>
